<?xml version="1.0" encoding="UTF-8" standalone="no"?>
<svg
   xmlns:dc="http://purl.org/dc/elements/1.1/"
   xmlns:cc="http://creativecommons.org/ns#"
   xmlns:rdf="http://www.w3.org/1999/02/22-rdf-syntax-ns#"
   xmlns:svg="http://www.w3.org/2000/svg"
   xmlns="http://www.w3.org/2000/svg"
   xmlns:sodipodi="http://sodipodi.sourceforge.net/DTD/sodipodi-0.dtd"
   xmlns:inkscape="http://www.inkscape.org/namespaces/inkscape"
   width="286.42133pt"
   height="56.862907pt"
   viewBox="0 0 381.2483 75.664456"
   preserveAspectRatio="xMidYMid meet"
   version="1.1"
   id="svg10"
   sodipodi:docname="logo-mono-white.svg"
   inkscape:version="0.92.4 (5da689c313, 2019-01-14)"
   inkscape:export-filename="E:\Arbeit\Skymatic\docs\source\img\logo-mono-white.png"
   inkscape:export-xdpi="96"
   inkscape:export-ydpi="96">
  <metadata
     id="metadata16">
    <rdf:RDF>
      <cc:Work
         rdf:about="">
        <dc:format>image/svg+xml</dc:format>
        <dc:type
           rdf:resource="http://purl.org/dc/dcmitype/StillImage" />
        <dc:title />
      </cc:Work>
    </rdf:RDF>
  </metadata>
  <defs
     id="defs14" />
  <sodipodi:namedview
     pagecolor="#ffffff"
     bordercolor="#666666"
     borderopacity="1"
     objecttolerance="10"
     gridtolerance="10"
     guidetolerance="10"
     inkscape:pageopacity="0"
     inkscape:pageshadow="2"
     inkscape:window-width="1920"
     inkscape:window-height="1017"
     id="namedview12"
     showgrid="false"
     inkscape:pagecheckerboard="true"
     units="pt"
     showguides="true"
     inkscape:guide-bbox="true"
     inkscape:snap-bbox="true"
     inkscape:snap-bbox-midpoints="true"
     inkscape:snap-bbox-edge-midpoints="true"
     inkscape:bbox-nodes="false"
     inkscape:bbox-paths="true"
     inkscape:object-nodes="false"
     inkscape:zoom="1"
     inkscape:cx="248.57478"
     inkscape:cy="22.184629"
     inkscape:window-x="-8"
     inkscape:window-y="-8"
     inkscape:window-maximized="1"
     inkscape:current-layer="svg10"
     fit-margin-top="0"
     fit-margin-left="0"
     fit-margin-right="0"
     fit-margin-bottom="0">
    <sodipodi:guide
       position="-1441.1851,-23.909918"
       orientation="0,1"
       id="guide22"
       inkscape:locked="false" />
    <sodipodi:guide
       position="-898.40074,116.00731"
       orientation="1,0"
       id="guide26"
       inkscape:locked="false" />
    <sodipodi:guide
       position="-661.80224,57.664963"
       orientation="1,0"
       id="guide28"
       inkscape:locked="false" />
  </sodipodi:namedview>
  <path
     d="m 70.159782,55.125583 a 4.1272,4.1272 0 0 0 -1.8952,-0.4672 h -3.24 c 2.2248,-3.3328 3.7,-7.38 3.7072,-12.2568 0.008,-2.744 -0.4344,-4.8992 -0.8416,-6.3064 a 6.6896,6.6896 0 0 1 -0.0448,-3.648 c 1.1792,-4.2504 0.4048,-8.9424 0.4048,-8.9424 -14.8056,-4.6216 -24.010401,-0.0384 -24.010401,-0.0384 0,0 -9.1832,-4.6112 -24,-0.036 0,0 -0.7888,4.6912 0.3776,8.9464 a 6.6952,6.6952 0 0 1 -0.0552,3.6472 c -0.4112,1.4056 -0.8576,3.56 -0.8616,6.304 -0.008,4.9072 1.4752,8.9792 3.712,12.3304 h -3.304 a 4.1272,4.1272 0 0 0 -1.8952,0.4672 c -1.5848,0.8104 -2.8728,2.6192 -3.6256,5.0992 -0.6992,2.3008 -0.88,4.9704 -0.5184,7.516 0.68,4.7448 3.108,7.9328 6.0408,7.9328 h 8.28 v -0.0088 c 0.3528,-0.0176 0.7008,-0.1744 1.0344,-0.4688 l 3.9752,-3.5056 c 0.8168,-0.728 1.4208,-2.56 1.6152,-4.9024 a 19.84,19.84 0 0 0 0.0592,-2.0752 c 4.912,2.6448 9.1016,3.6984 9.1016,3.6984 0,0 4.2,-1.04 9.126401,-3.68 a 19.6632,19.6632 0 0 0 0.0592,2.0544 c 0.1944,2.3416 0.8,4.1744 1.6152,4.9024 l 3.9752,3.5056 c 0.3336,0.2944 0.6816,0.4512 1.0344,0.4688 v 0.004 h 8.28 c 2.9328,0 5.36,-3.188 6.0408,-7.9328 0.3648,-2.5456 0.1808,-5.2152 -0.5184,-7.516 -0.7488,-2.4728 -2.0408,-4.2816 -3.6288,-5.092 z m -37.822401,15.372 c -0.0424,0.0208 -2.0752,1.8304 -3.232,2.8536 a 0.8936,0.8936 0 0 1 -1.3888,-0.2616 c -1.68,-3.2912 -1.8632,-9.9904 -0.6712,-14.1184 2.0168,1.944 4.2456,3.5384 6.4104,4.828 0.1232,2.4344 -0.3472,6.2496 -1.1184,6.6984 z m 15.4296,-16.8904 -3.5768,1.0176 -3.5736,-1.0272 2.5832,-10.8384 a 4.5968,4.5968 0 1 1 2.0232,0 z m 12.911201,19.4824 a 0.8936,0.8936 0 0 1 -1.3888,0.2616 c -1.1576,-1.0232 -3.1896,-2.8328 -3.232,-2.8536 -0.7696,-0.448 -1.24,-4.248 -1.12,-6.6824 2.168,-1.2856 4.4,-2.88 6.42,-4.8144 1.1832,4.1296 0.9984,10.8056 -0.6792,14.0888 z"
     id="path2"
     style="fill:#ffffff;stroke-width:0.08"
     inkscape:connector-curvature="0" />
  <path
     d="m 14.310181,46.711983 1.6512,-3.2296 a 3.9496,3.9496 0 0 0 -0.0408,-3.68 l 1.4456,-2.8272 a 5.98,5.98 0 0 0 1.3112,-0.0488 c 0.1136,-0.5128 0.2328,-0.9664 0.3456,-1.3536 a 5.0864,5.0864 0 0 0 0.0488,-2.7744 c -0.7912,-2.8848 -0.7584,-5.9064 -0.6192,-7.7824 a 6.0048,6.0048 0 0 0 -5.484,9.5288 l -1.5448,3.0184 a 3.948,3.948 0 0 0 -2.9176003,2.1064 l -1.652,3.2296 a 3.9472,3.9472 0 0 0 -0.0424,3.5136 6.6232,6.6232 0 0 0 -5.98640004,9.8224 1.6,1.6 0 0 0 2.80000004,-1.5448 3.424,3.424 0 1 1 3.3776,1.7456 1.6,1.6 0 0 0 0.1784,3.1904 1.7424,1.7424 0 0 0 0.1824,-0.0104 6.6248,6.6248 0 0 0 4.3200003,-10.8544 3.944,3.944 0 0 0 2.6264,-2.0496 z"
     id="path4"
     style="fill:#ffffff;stroke-width:0.08"
     inkscape:connector-curvature="0" />
  <path
     d="m 87.919782,49.536783 a 6.6296,6.6296 0 0 0 -5.8912,-3.6048 3.9432,3.9432 0 0 0 -0.24,-3.0328 l -1.652,-3.2296 a 3.948,3.948 0 0 0 -2.9176,-2.1064 l -1.5392,-3.0184 a 6,6 0 0 0 -5.6552,-9.5032 c 0.1368,1.8712 0.1696,4.9256 -0.64,7.836 a 5.0872,5.0872 0 0 0 0.04,2.7752 c 0.1032,0.3584 0.212,0.7728 0.32,1.24 a 6.0352,6.0352 0 0 0 1.5352,0.084 l 1.4456,2.8272 a 3.9496,3.9496 0 0 0 -0.0416,3.68 l 1.652,3.2296 a 3.9376,3.9376 0 0 0 2.32,1.9656 6.6232,6.6232 0 0 0 4.624,10.4568 1.7672,1.7672 0 0 0 0.1824,0.0104 1.6,1.6 0 0 0 0.1784,-3.1904 3.4232,3.4232 0 1 1 3.3784,-1.7456 1.6,1.6 0 1 0 2.8,1.5448 6.6216,6.6216 0 0 0 0.1008,-6.2184 z"
     id="path6"
     style="fill:#ffffff;stroke-width:0.08"
     inkscape:connector-curvature="0" />
  <path
     d="m 44.246181,21.722383 c 1.52,-0.6072 5.4056,-1.8824 11.144001,-1.8824 3.1728,0 6.4424,0.3912 9.76,1.1624 -0.784,-10.6488 -8.9904,-21.01759969 -20.935201,-21.01759969 -12.8392,0 -20.2152,10.33839969 -20.9352,20.96959969 3.3016,-0.7616 6.556,-1.148 9.7136,-1.148 5.7992,0 9.72,1.2984 11.2528,1.916 z m 5.6,-4.3824 a 0.9216,0.9216 0 1 1 0.9216,-0.9208 0.9208,0.9208 0 0 1 -0.9184,0.9208 z m 1.8632,-8.7888001 a 4.8512,4.8512 0 0 1 4.851201,4.8512001 h -9.699201 a 4.8512,4.8512 0 0 1 4.8512,-4.8512001 z m -5.4864,6.9464001 a 0.9216,0.9216 0 1 1 -0.9208,0.9216 0.9216,0.9216 0 0 1 0.924,-0.9216 z m -7.2456,1.84 a 0.9216,0.9216 0 1 1 0.9216,-0.9208 0.9208,0.9208 0 0 1 -0.9184,0.9232 z m 3.6232,-1.84 a 0.9216,0.9216 0 1 1 -0.9208,0.9216 0.9216,0.9216 0 0 1 0.924,-0.9216 z m -5.8808,-6.9464001 a 4.8512,4.8512 0 0 1 4.8512,4.8512001 h -9.7048 a 4.8512,4.8512 0 0 1 4.8536,-4.8512001 z"
     id="path8"
     style="fill:#ffffff;stroke-width:0.08"
     inkscape:connector-curvature="0" />
  <text
     xml:space="preserve"
     style="font-style:normal;font-variant:normal;font-weight:bold;font-stretch:normal;font-size:50.47436523px;line-height:1.25;font-family:Quicksand;-inkscape-font-specification:'Quicksand Bold';letter-spacing:0px;word-spacing:0px;fill:#ffffff;fill-opacity:1;stroke:none;stroke-width:0.0798645"
     x="104.81007"
     y="52.828823"
     id="text20"><tspan
       sodipodi:role="line"
       id="tspan18"
       x="104.81007"
       y="52.828823"
       style="font-style:normal;font-variant:normal;font-weight:bold;font-stretch:normal;font-size:37.85577393px;font-family:Quicksand;-inkscape-font-specification:'Quicksand Bold';fill:#ffffff;stroke-width:0.0798645">CRYPTOMATOR</tspan></text>
</svg>
